name rise30.6535peak61.5555fall82.9339.mot
datacolumns 19
datarows 12
range 22.94657200000000 22.96490400000000
endheader
time	ground_force1_vx	ground_force1_vy	ground_force1_vz	ground_force1_px	ground_force1_py	ground_force1_pz	ground_force2_vx	ground_force2_vy	ground_force2_vz	ground_force2_px	ground_force2_py	ground_force2_pz	ground_torque1_x	ground_torque1_y	ground_torque1_z	ground_torque2_x	ground_torque2_y	ground_torque2_z	
22.94657200000000	61.15747200000000	781.59834699999999	58.64894800000000	0.36965900000000	0.00000000000000	0.10010800000000	0.00000000000000	0.00000000000000	0.00000000000000	0.00000000000000	0.00000000000000	0.00000000000000	0.00000000000000	30.32622400000000	0.00000000000000	0.00000000000000	0.00000000000000	0.00000000000000	
22.94823900000000	60.54496100000000	784.45292600000005	58.85091900000000	0.36906900000000	0.00000000000000	0.10012000000000	0.00000000000000	0.00000000000000	0.00000000000000	0.00000000000000	0.00000000000000	0.00000000000000	0.00000000000000	30.45894500000000	0.00000000000000	0.00000000000000	0.00000000000000	0.00000000000000	
22.94990700000000	59.92806700000000	787.13589999999999	59.04672800000000	0.36849700000000	0.00000000000000	0.10013100000000	0.00000000000000	0.00000000000000	0.00000000000000	0.00000000000000	0.00000000000000	0.00000000000000	0.00000000000000	30.58890000000000	0.00000000000000	0.00000000000000	0.00000000000000	0.00000000000000	
22.95157900000000	59.30742800000000	789.64608899999996	59.23613700000000	0.36794400000000	0.00000000000000	0.10014100000000	0.00000000000000	0.00000000000000	0.00000000000000	0.00000000000000	0.00000000000000	0.00000000000000	0.00000000000000	30.71584700000000	0.00000000000000	0.00000000000000	0.00000000000000	0.00000000000000	
22.95324200000000	58.68363600000000	791.98256900000001	59.41884400000000	0.36740700000000	0.00000000000000	0.10015100000000	0.00000000000000	0.00000000000000	0.00000000000000	0.00000000000000	0.00000000000000	0.00000000000000	0.00000000000000	30.83950200000000	0.00000000000000	0.00000000000000	0.00000000000000	0.00000000000000	
22.95490300000000	58.05723900000000	794.14467700000000	59.59450000000000	0.36688500000000	0.00000000000000	0.10016000000000	0.00000000000000	0.00000000000000	0.00000000000000	0.00000000000000	0.00000000000000	0.00000000000000	0.00000000000000	30.95954300000000	0.00000000000000	0.00000000000000	0.00000000000000	0.00000000000000	
22.95657400000000	57.42874000000000	796.13202400000000	59.76270100000000	0.36637700000000	0.00000000000000	0.10016900000000	0.00000000000000	0.00000000000000	0.00000000000000	0.00000000000000	0.00000000000000	0.00000000000000	0.00000000000000	31.07561900000000	0.00000000000000	0.00000000000000	0.00000000000000	0.00000000000000	
22.95824300000000	56.79860300000000	797.94449999999995	59.92300400000000	0.36588100000000	0.00000000000000	0.10017700000000	0.00000000000000	0.00000000000000	0.00000000000000	0.00000000000000	0.00000000000000	0.00000000000000	0.00000000000000	31.18734400000000	0.00000000000000	0.00000000000000	0.00000000000000	0.00000000000000	
22.95990900000000	56.16725300000000	799.58227999999997	60.07492200000000	0.36539600000000	0.00000000000000	0.10018500000000	0.00000000000000	0.00000000000000	0.00000000000000	0.00000000000000	0.00000000000000	0.00000000000000	0.00000000000000	31.29430800000000	0.00000000000000	0.00000000000000	0.00000000000000	0.00000000000000	
22.96157200000000	55.53507900000000	801.04582800000003	60.21793800000000	0.36492000000000	0.00000000000000	0.10019200000000	0.00000000000000	0.00000000000000	0.00000000000000	0.00000000000000	0.00000000000000	0.00000000000000	0.00000000000000	31.39607700000000	0.00000000000000	0.00000000000000	0.00000000000000	0.00000000000000	
22.96323800000000	54.90243400000000	802.33590400000003	60.35150500000000	0.36445100000000	0.00000000000000	0.10019900000000	0.00000000000000	0.00000000000000	0.00000000000000	0.00000000000000	0.00000000000000	0.00000000000000	0.00000000000000	31.49219800000000	0.00000000000000	0.00000000000000	0.00000000000000	0.00000000000000	
22.96490400000000	54.26964300000000	803.45356300000003	60.47505400000000	0.36398900000000	0.00000000000000	0.10020500000000	0.00000000000000	0.00000000000000	0.00000000000000	0.00000000000000	0.00000000000000	0.00000000000000	0.00000000000000	31.58220300000000	0.00000000000000	0.00000000000000	0.00000000000000	0.00000000000000	
